<svg version="1.1" id="Слой_1" xmlns="http://www.w3.org/2000/svg" xmlns:xlink="http://www.w3.org/1999/xlink" x="0px" y="0px"
	 viewBox="0 0 1000 319.7284851" enable-background="new 0 0 1000 319.7284851" xml:space="preserve">
<path fill-rule="evenodd" clip-rule="evenodd" fill="#241A30" d="M164.0085602,318.8161011
	c-31.5135651,0-46.1585617-4.6004944-71.614769-23.002594c-16.1018295,20.7023315-67.0909348,36.8808594-69.3145142,9.2010498
	c0-20.7790222-4.6005192-38.337677-9.8144436-57.5065155C7.054132,223.8920135,0,197.5923615,0,159.484726
	C0,68.4710846,74.6817856,0,163.1651459,0c88.5600128,0,157.9512177,71.8448029,157.9512177,160.3281403
	C321.4136047,247.443161,251.1228333,318.3513794,164.0085602,318.8161011z M165.3120422,78.6689148
	c-43.0915375-2.2235794-76.6753464,27.6031265-84.112854,74.3750916
	c-6.1340332,38.7210541,4.7538681,85.8764038,14.0315857,88.3300018
	c4.4471664,1.0734558,15.6417694-7.9742432,22.6192245-14.9516907
	c11.5375748,7.9704437,24.9729691,12.7574768,38.9510727,13.8782349
	c44.6499329,2.1477356,82.80159-31.8444214,85.7997131-76.4453125c1.7453156-44.6953049-32.6325836-82.551918-77.2887573-85.109642
	L165.3120422,78.6689148z"/>
<path fill="#241A30" d="M461.7389221,244.2109985h-34.0438232V83.1927643h55.4362793l37.1108704,110.4891815h4.9838867
	l38.7210693-110.4891815h54.2094727v161.0182343h-34.1204834V124.5974503h-4.9072266l-42.1714478,119.6135483h-29.9801331
	l-40.2545776-119.6135483h-4.9838867C461.7389221,124.5974503,461.7389221,244.2109985,461.7389221,244.2109985z
	 M724.6586914,247.2779846c-15.1050415,0-28.5999146-3.5270538-40.6379395-10.5045166
	c-11.9060059-7.1791687-21.633667-17.4633789-28.1398926-29.7500305
	c-6.743103-13.4312897-10.1367188-28.2946167-9.8911133-43.321579c0-16.1018219,3.2970581-30.5167847,9.9678345-43.0915451
	c6.3875122-12.3713913,16.1426392-22.6847305,28.1398315-29.7500381
	c12.265686-7.2647629,26.3077393-10.9809875,40.5612793-10.7345428c13.4181519,0,25.3028564,2.8369827,35.5773315,8.5876389
	c10.3511963,5.5972977,18.7854614,12.421402,25.3795166,20.4723129l7.437561-26.0696106h26.7597046v161.0182343h-26.6063232
	l-7.437561-25.9929504c-7.1089478,8.4392242-15.7451782,15.4626465-25.4561768,20.7023621
	c-10.9633789,5.7527161-23.1983643,8.6532593-35.5773926,8.4342651H724.6586914z M733.322998,215.3810425
	c15.1050415,0,27.2197266-4.7538757,36.5740967-14.2616119c9.5913086-10.0426483,14.708313-23.5404816,14.1849365-37.4175873
	c0-15.3350677-4.7539062-27.6797943-14.1849365-37.1875381c-9.5697021-9.8291397-22.8671875-15.1258545-36.5740967-14.5683136
	c-14.875061,0-26.9130859,4.8305435-36.1907959,14.5683136c-9.5021973,9.9905014-14.5387573,23.412178-13.954895,37.1875381
	c0,15.2583923,4.6004639,27.7564697,13.954895,37.4175873C706.6746216,210.7190857,719.7970581,215.8901978,733.322998,215.3810425z
	 M881.3831177,244.2109985H841.12854l51.0657959-82.4260101l-45.2384644-78.5922241h40.3312988l29.9800415,54.1327972h5.9039917
	l31.590271-54.1327972h39.3344727l-45.2384644,76.4453278L1000,244.2109985h-41.5580444l-34.3505859-61.0335693h-5.9039307
	l-36.8041992,61.0335693H881.3831177z"/>
</svg>